<svg width="24" height="24" viewBox="0 0 24 24" fill="none" xmlns="http://www.w3.org/2000/svg">
<path d="M12.24 10.28V13.72H18.44C18.18 15.08 17.32 16.22 16.12 17.02C14.92 17.82 13.52 18.24 12.00 18.24C9.00 18.24 6.52 16.24 5.68 13.44L2.24 16.12C3.68 18.88 6.64 20.72 10.00 20.72C13.00 20.72 15.64 19.52 17.56 17.68C19.48 15.84 20.56 13.36 20.56 10.28V10.00H12.24V10.28Z" fill="#4285F4"/>
<path d="M5.68 13.44C5.42 12.64 5.28 11.84 5.28 11.00C5.28 10.16 5.42 9.36 5.68 8.56V8.28L2.24 5.60C1.68 6.88 1.36 8.24 1.36 9.68C1.36 11.12 1.68 12.48 2.24 13.76L5.68 13.44Z" fill="#34A853"/>
<path d="M12.00 5.76C13.52 5.76 14.92 6.36 16.00 7.36L19.00 4.36C17.08 2.52 14.52 1.52 12.00 1.52C8.64 1.52 5.68 2.72 3.68 5.60L5.68 8.56C6.52 5.76 9.00 3.76 12.00 3.76V5.76Z" fill="#FBBC05"/>
<path d="M20.56 10.00H20.84V10.28H20.56V10.00Z" fill="#EA4335"/>
</svg>
